<?xml version="1.0" encoding="UTF-8"?>
<svg version="1.1" xmlns="http://www.w3.org/2000/svg" width="1024" height="1024">
<path d="M0 0 C1.60758647 -0.00218016 1.60758647 -0.00218016 3.24764943 -0.00440437 C6.85140392 -0.00806388 10.45511611 -0.00457809 14.05887032 -0.0011425 C16.66379478 -0.00229435 19.26871908 -0.0038823 21.87364304 -0.00586975 C27.5439783 -0.0094818 33.21430404 -0.00937163 38.88463974 -0.00682259 C47.3171257 -0.00304216 55.74960361 -0.00497285 64.18208951 -0.00803089 C79.24480748 -0.0132999 94.30752122 -0.01283878 109.37023959 -0.00995198 C122.55807754 -0.00743695 135.74591393 -0.00677947 148.93375206 -0.00797462 C150.24566588 -0.0080892 150.24566588 -0.0080892 151.58408301 -0.00820609 C155.13447039 -0.00851744 158.68485776 -0.00883584 162.23524514 -0.00916586 C195.55550277 -0.01222617 228.87575771 -0.00944979 262.19601492 -0.00406896 C291.78255451 0.00067262 321.3690898 0.00025566 350.95562935 -0.00452995 C384.19964798 -0.00988919 417.44366422 -0.01200498 450.68768322 -0.00891769 C454.23472285 -0.00859698 457.78176248 -0.00828414 461.32880211 -0.00797462 C462.20216467 -0.00789555 463.07552723 -0.00781647 463.97535532 -0.007735 C477.14619841 -0.00659901 490.31703977 -0.00792512 503.48788261 -0.01045418 C518.47622449 -0.01331789 533.46456146 -0.01258932 548.45290272 -0.00717343 C556.83438408 -0.0042445 565.21585482 -0.00403478 573.59733589 -0.00781961 C579.86645132 -0.01033742 586.13555432 -0.00759188 592.40466823 -0.00284503 C594.93300835 -0.00173197 597.4613499 -0.00228726 599.9896891 -0.00472082 C642.85762833 -0.04280209 642.85762833 -0.04280209 653.44879341 8.95005989 C662.82578638 18.70292389 663.45623645 30.90979587 663.42899036 43.72544575 C663.4307434 44.77419668 663.43249644 45.82294762 663.4343026 46.90347889 C663.43896011 50.42302199 663.43649771 53.94252374 663.43406868 57.46206856 C663.43593678 60.00883496 663.43823747 62.55560108 663.440934 65.10236675 C663.44577915 70.64242549 663.44750623 76.18247174 663.44647789 81.72253227 C663.4449524 89.96106964 663.44911598 98.19959734 663.45435252 106.43813283 C663.46402316 122.00912101 663.46683665 137.5801059 663.46740957 153.15109672 C663.46786914 165.17644456 663.46992762 177.2017911 663.4731102 189.22713852 C663.47400775 192.68882602 663.47489756 196.15051353 663.47578508 199.61220104 C663.47600612 200.47279281 663.47622717 201.33338459 663.47645492 202.2200549 C663.48260912 226.42700869 663.48655548 250.63396203 663.48611164 274.84091663 C663.48609606 275.75356831 663.48608048 276.66621998 663.48606443 277.60652776 C663.48598133 282.23220509 663.48588228 286.85788242 663.48577973 291.48355975 C663.48574981 292.86156839 663.48574981 292.86156839 663.48571928 294.2674156 C663.48567885 296.12519543 663.48563705 297.98297526 663.48559389 299.84075509 C663.48498118 328.74267357 663.49248691 357.64458032 663.50616646 386.54649544 C663.52152994 419.01956061 663.53013252 451.49261806 663.52920324 483.9656871 C663.52912861 487.42894638 663.5290799 490.89220565 663.52904892 494.35546494 C663.52903144 495.63457268 663.52903144 495.63457268 663.5290136 496.93952098 C663.52898284 510.65713598 663.53536636 524.37474078 663.54398118 538.09235275 C663.55246167 551.88135967 663.55344451 565.6703517 663.54687186 579.45935979 C663.54317884 587.64840512 663.54500118 595.83740517 663.5548142 604.02644569 C663.56152605 610.14516505 663.55775408 616.26383621 663.54994098 622.38255332 C663.54840274 624.85493857 663.55023433 627.32732874 663.55580106 629.79970821 C663.62695971 663.64917532 663.62695971 663.64917532 655.30035591 674.12584114 C653.38479343 675.96339429 651.41639657 677.51361969 649.30035591 679.12584114 C649.30035591 679.78584114 649.30035591 680.44584114 649.30035591 681.12584114 C648.24848091 681.31146614 648.24848091 681.31146614 647.17535591 681.50084114 C644.31464679 682.03547537 644.31464679 682.03547537 641.80342555 683.14882433 C636.95876604 684.50001465 632.38307439 684.40307982 627.37624168 684.38311005 C626.26811819 684.38661612 625.1599947 684.3901222 624.01829171 684.39373451 C620.28472868 684.40307899 616.55132058 684.39811727 612.81775093 684.39326668 C610.12207485 684.3970014 607.42641045 684.40152223 604.7307384 684.40699732 C598.85921271 684.41730765 592.98771999 684.42013933 587.11618614 684.4180851 C578.3848879 684.41503779 569.65362621 684.42335309 560.92233506 684.43383435 C544.42132515 684.4531888 527.92032766 684.45880311 511.41930774 684.45994847 C498.67735141 684.46086712 485.93539995 684.46498156 473.19344521 684.47134972 C469.52728868 684.47314477 465.86113215 684.4749244 462.19497561 684.47669947 C461.28358825 684.47714157 460.37220088 684.47758366 459.43319572 684.47803916 C433.79301603 684.49034977 408.15283803 684.49824006 382.51265526 684.4973526 C381.54571293 684.49732144 380.5787706 684.49729029 379.58252699 684.49725818 C374.68152834 684.49709197 369.7805297 684.49689388 364.87953106 684.49668877 C363.90615453 684.49664888 362.932778 684.49660899 361.92990521 684.49656789 C359.96150002 684.49648701 357.99309483 684.49640342 356.02468964 684.49631711 C325.39780941 684.49509153 294.77097347 684.51010512 264.14410591 684.53746223 C229.74432295 684.56817671 195.34456907 684.58539511 160.94477153 684.58353579 C157.27735758 684.58338653 153.60994363 684.58328911 149.94252968 684.58322716 C149.0395025 684.58320385 148.13647531 684.58318054 147.20608367 684.58315653 C132.66764125 684.58309495 118.12923724 684.59587221 103.59080624 684.61309169 C88.98160255 684.63003722 74.37245512 684.63203048 59.76324704 684.61887304 C51.08252042 684.61147665 42.40196457 684.61516236 33.721256 684.63475773 C27.92237515 684.64674253 22.12361821 684.64418341 16.32474308 684.62981673 C13.02088299 684.6220409 9.7174199 684.62274517 6.41357055 684.63673143 C2.85135399 684.65081475 -0.70997901 684.64029441 -4.2721653 684.62361908 C-5.293422 684.63355544 -6.31467869 684.6434918 -7.36688256 684.65372926 C-17.02574047 684.55796992 -24.92092737 681.73049628 -31.94573784 675.03209114 C-40.40813883 665.83464864 -41.00965554 655.12618799 -40.95132637 643.07062626 C-40.95423325 642.00907313 -40.95714013 640.94752 -40.9601351 639.8537986 C-40.96741418 636.30875503 -40.96050141 632.76388567 -40.95361137 629.21884346 C-40.95591662 626.64672525 -40.95909358 624.07460771 -40.96306586 621.50249153 C-40.97027248 615.9164093 -40.97008044 610.33036576 -40.96497154 604.74428177 C-40.95739509 596.43752275 -40.96128001 588.13079627 -40.96738816 579.82403746 C-40.97791231 564.98699483 -40.9770098 550.14996944 -40.97123033 535.31292517 C-40.96619771 522.32934375 -40.96488653 509.34576863 -40.96727562 496.36218643 C-40.96742839 495.50069977 -40.96758116 494.63921311 -40.96773856 493.75162079 C-40.96836124 490.25450949 -40.96899804 486.75739818 -40.96965809 483.26028688 C-40.97577484 450.46095946 -40.97023103 417.66164301 -40.95946429 384.86231728 C-40.94997238 355.72497365 -40.95082319 326.58764751 -40.96038628 297.45030403 C-40.97109625 264.70916112 -40.97534188 231.96802789 -40.96916175 199.22688347 C-40.96852032 195.73648234 -40.96789464 192.24608121 -40.96727562 188.75568008 C-40.96711746 187.89626307 -40.96695931 187.03684605 -40.96679636 186.1513861 C-40.9645218 173.17558266 -40.96718125 160.19978623 -40.97223473 147.22398376 C-40.97795205 132.47012498 -40.97652607 117.71628612 -40.96567324 102.96242981 C-40.95980022 94.7060867 -40.95941799 86.44978673 -40.96696559 78.19344474 C-40.97197836 72.03008059 -40.96654227 65.86676734 -40.95701644 59.70340944 C-40.9547798 57.20896109 -40.95592459 54.71450696 -40.96076801 52.22006231 C-40.96684317 48.83169741 -40.96061752 45.44356751 -40.95132637 42.05521488 C-40.9560087 41.08512213 -40.96069103 40.11502938 -40.96551526 39.11553988 C-40.91032895 29.05628208 -39.82220716 18.64244752 -32.71917534 10.99302864 C-22.48457783 1.4454351 -13.57606035 -0.03203038 0 0 Z " fill="#343A3C" transform="translate(200.69964408874512,198.87415885925293)"/>
<path d="M0 0 C0.73028904 -0.00453111 1.46057807 -0.00906223 2.21299708 -0.01373065 C4.65489032 -0.02636947 7.09656038 -0.02475463 9.53848267 -0.02310181 C11.29138983 -0.02908736 13.04429437 -0.03589297 14.79719543 -0.04345703 C19.55549618 -0.06112088 24.31372498 -0.06581256 29.07205534 -0.0670886 C32.04560945 -0.06851047 35.01914528 -0.07278072 37.99269485 -0.07808304 C48.36848359 -0.09658412 58.74422095 -0.10475349 69.12002563 -0.10317993 C78.78864561 -0.1019783 88.45704244 -0.12308479 98.12560594 -0.15466726 C106.42979207 -0.18082544 114.7339053 -0.19154743 123.03813231 -0.19026911 C127.99648295 -0.18975937 132.95463523 -0.19544932 137.91294479 -0.21662521 C142.5768058 -0.23600001 147.24027908 -0.23613727 151.90415382 -0.22159195 C153.6137594 -0.21950186 155.3233892 -0.22421672 157.03295326 -0.23631287 C159.37129981 -0.25178367 161.70831239 -0.24244648 164.04663086 -0.22705078 C165.35369177 -0.22814032 166.66075268 -0.22922985 168.00742149 -0.2303524 C173.54801691 0.52673759 177.23011937 2.69775323 181.02529907 6.89242554 C183.75225596 10.87797791 183.78106895 13.1725735 183.79747009 18.02185059 C183.80114678 18.72436947 183.80482347 19.42688835 183.80861157 20.15069568 C183.81966877 22.51659861 183.82349572 24.88245764 183.82730103 27.24838257 C183.83356428 28.94011068 183.84021095 30.63183741 183.84721375 32.32356262 C183.86463942 36.92920157 183.87518036 41.53483011 183.88341928 46.14049387 C183.88856746 49.01805076 183.89464336 51.89560442 183.9009304 54.77315903 C183.91998921 63.77639442 183.93421733 72.77962158 183.94254237 81.78287327 C183.95231003 92.17494259 183.97861435 102.56679863 184.01904327 112.95879281 C184.0492161 120.99031604 184.06401247 129.0217782 184.06732339 137.05335701 C184.06967307 141.85027448 184.07862251 146.6469643 184.10378456 151.44382095 C184.12708988 155.95989186 184.13128864 160.47558564 184.12102318 164.99170113 C184.12052826 166.64606418 184.12683573 168.30044593 184.14057922 169.95475197 C184.26476814 185.79445667 184.26476814 185.79445667 179.65029907 192.26742554 C176.30975752 195.60520786 173.96213738 196.72577874 169.21234989 196.79773706 C168.51439021 196.78813206 167.81643053 196.77852705 167.09732056 196.76863098 C166.34520263 196.77416538 165.5930847 196.77969977 164.81817532 196.78540188 C162.30224329 196.79899669 159.78730532 196.7840462 157.27139282 196.76913452 C155.46597879 196.77291814 153.66056766 196.77841853 151.85516357 196.7855072 C146.95433043 196.79947356 142.0538479 196.78828372 137.15303421 196.77179599 C132.02508516 196.75794958 126.89715655 196.7644051 121.76919556 196.76792908 C113.15756579 196.77063152 104.54607537 196.75715263 95.93447876 196.73397827 C85.9772794 196.70736835 76.02031305 196.70562133 66.06309032 196.71736664 C56.48585719 196.72814466 46.90870837 196.72195714 37.33148193 196.70781136 C33.25502531 196.70205177 29.17863039 196.70213403 25.10217285 196.70687675 C20.30209269 196.71164795 15.50226778 196.70153888 10.70223618 196.6799221 C8.9402032 196.67435602 7.1781457 196.6738873 5.41611099 196.67887497 C3.01154964 196.68482796 0.60776863 196.67232294 -1.79672241 196.65510559 C-2.84366193 196.66412066 -2.84366193 196.66412066 -3.91175175 196.67331785 C-8.25027166 196.61679436 -11.00523436 196.07648583 -14.34970093 193.26742554 C-17.88340541 188.27997328 -18.85132777 184.96212891 -18.87109375 178.75314331 C-18.87874484 178.02931253 -18.88639594 177.30548175 -18.89427888 176.5597167 C-18.9148002 174.15143785 -18.90698254 171.74412509 -18.89901733 169.33578491 C-18.90771799 167.60228092 -18.91808643 165.86878462 -18.92999268 164.13529968 C-18.95672362 159.43902593 -18.95793587 154.74307456 -18.95286608 150.04673958 C-18.95072377 146.12268858 -18.96050048 142.19870243 -18.97007692 138.27466536 C-18.99224926 129.01683145 -18.99315155 119.75915986 -18.98104858 110.50131226 C-18.9689621 100.956346 -18.99361196 91.41196886 -19.03618872 81.8671031 C-19.07142903 73.66475912 -19.0834224 65.46260261 -19.07691324 57.26018572 C-19.07328922 52.3643799 -19.07854272 47.46899459 -19.10634232 42.57325745 C-19.13150507 37.96992117 -19.12760738 33.36750341 -19.10152054 28.76418114 C-19.09679134 27.07715226 -19.1022505 25.39005867 -19.11876678 23.70310402 C-19.24886128 9.3803186 -19.24886128 9.3803186 -15.61566162 4.834198 C-11.06773864 0.45672739 -6.10183768 0.01565594 0 0 Z " fill="#405B4F" transform="translate(429.3497009277344,225.73257446289063)"/>
<path d="M0 0 C1.10640257 -0.00679667 1.10640257 -0.00679667 2.23515671 -0.01373065 C4.70779402 -0.02639515 7.18021165 -0.02475296 9.65287781 -0.02310181 C11.42534163 -0.02908582 13.19780284 -0.03589107 14.97026062 -0.04345703 C19.78646978 -0.06113818 24.60260789 -0.06581333 29.41884637 -0.0670886 C33.43965601 -0.06898739 37.4604491 -0.07634478 41.48125237 -0.08343279 C50.96864516 -0.09972275 60.45599999 -0.10460123 69.94340515 -0.10317993 C79.72845084 -0.10197864 89.5132759 -0.12307655 99.29826576 -0.15466726 C107.70009534 -0.18082535 116.10185285 -0.19154741 124.50372285 -0.19026911 C129.52133224 -0.1897593 134.53874565 -0.19545314 139.55631447 -0.21662521 C144.27679427 -0.23599943 148.99689097 -0.23613764 153.71738434 -0.22159195 C155.44795224 -0.21950167 157.17854407 -0.22421783 158.90907097 -0.23631287 C161.27592961 -0.25178118 163.64146994 -0.24244794 166.00830078 -0.22705078 C167.03001569 -0.24248147 167.03001569 -0.24248147 168.0723713 -0.25822389 C173.13736505 -0.18565649 176.85317419 1.02665863 180.69462585 4.26742554 C184.41610522 8.71711346 185.19563956 12.84656108 185.20256042 18.62985229 C185.20880039 19.33734887 185.21504035 20.04484544 185.2214694 20.7737813 C185.23732929 23.12682701 185.22482369 25.47882665 185.21220398 27.83187866 C185.21762825 29.52597148 185.22475262 31.22005958 185.23344421 32.91413879 C185.25164431 37.50300908 185.24462378 42.09151872 185.23192787 46.68039513 C185.22178302 51.48842701 185.23119768 56.29642854 185.23747253 61.10446167 C185.24474461 69.17788217 185.23517278 77.25115619 185.21611023 85.32455444 C185.19434233 94.65128395 185.20139402 103.97766367 185.22341585 113.30438471 C185.24158238 121.31988593 185.24412205 129.33528201 185.23366117 137.35079718 C185.22743314 142.13471553 185.22657164 146.9184696 185.23980713 151.70237732 C185.25138324 156.20050957 185.24330784 160.69819193 185.2202301 165.19627571 C185.2149524 166.84459245 185.21644071 168.49294722 185.22528076 170.1412487 C185.23625773 172.39633881 185.22244902 174.6499991 185.20256042 176.90499878 C185.20105232 178.16521599 185.19954422 179.4254332 185.19799042 180.72383881 C184.42083457 186.19486192 182.21148883 189.8950257 178.06962585 193.64242554 C174.12418853 196.34193529 171.28455678 196.41583429 166.62303162 196.41459656 C165.88643318 196.41827325 165.14983475 196.42194993 164.39091516 196.42573804 C161.90978833 196.43679701 159.42870335 196.44062246 156.94755554 196.44442749 C155.17376573 196.45069049 153.39997723 196.45733714 151.62619019 196.46434021 C146.79755192 196.4817655 141.96892358 196.4923062 137.14026165 196.50054574 C134.12469243 196.50569281 131.1091263 196.51176868 128.09355927 196.51805687 C118.66211123 196.53711347 109.23067104 196.55134344 99.79920745 196.55966884 C88.90565816 196.56944307 78.01231197 196.59576552 67.11883426 196.63616973 C58.70348141 196.66631324 50.28818683 196.68113605 41.87278104 196.68444985 C36.8445417 196.68680242 31.81651922 196.69578958 26.78833771 196.72091103 C22.05723471 196.74416579 17.32649175 196.74843544 12.59534645 196.73814964 C10.85951605 196.73765353 9.1236681 196.74399608 7.38789177 196.75770569 C5.01621397 196.77538858 2.64583326 196.76833718 0.27415466 196.75517273 C-0.41126569 196.76614198 -1.09668604 196.77711122 -1.80287671 196.78841287 C-7.99698638 196.70552084 -11.34701184 194.18449014 -15.64778709 189.9744091 C-17.80545016 186.45075799 -17.81373989 184.07706486 -17.82676697 179.95568848 C-17.83441806 179.22948299 -17.84206916 178.50327751 -17.8499521 177.7550658 C-17.87055546 175.32676048 -17.86263989 172.89940603 -17.85469055 170.47103882 C-17.86338683 168.72797777 -17.87375382 166.98492437 -17.88566589 165.24188232 C-17.91244848 160.51036819 -17.913603 155.77917353 -17.9085393 151.04759836 C-17.90639983 147.09630921 -17.91616679 143.1450847 -17.92575014 139.19380939 C-17.94794178 129.87080544 -17.94881484 120.54796265 -17.9367218 111.22494507 C-17.92464264 101.61072144 -17.94926217 91.99708323 -17.99186194 82.38295949 C-18.02710367 74.12545483 -18.03909513 65.86813643 -18.03258646 57.61055934 C-18.0289616 52.6800723 -18.03422367 47.75000278 -18.06201553 42.81958389 C-18.08717944 38.18180385 -18.08327943 33.54493549 -18.05719376 28.90716934 C-18.05246427 27.20724173 -18.05792475 25.5072499 -18.07444 23.80739594 C-18.20457262 9.36975117 -18.20457262 9.36975117 -14.50883484 4.82647705 C-10.05591011 0.64900691 -5.96997459 -0.02688176 0 0 Z " fill="#495153" transform="translate(428.3053741455078,661.7325744628906)"/>
<path d="M0 0 C0.72772576 -0.00367669 1.45545152 -0.00735338 2.20522958 -0.01114148 C4.65638344 -0.02220006 7.10749494 -0.02602585 9.55867004 -0.02983093 C11.31113317 -0.03609401 13.06359497 -0.04274067 14.8160553 -0.04974365 C19.58691125 -0.06716944 24.35775717 -0.07771002 29.12863708 -0.08594918 C32.10870205 -0.09109671 35.0887639 -0.09717259 38.06882668 -0.10346031 C47.39081987 -0.12251803 56.71280512 -0.13674712 66.03481406 -0.14507228 C76.79874333 -0.15484347 87.5624669 -0.1811575 98.32632369 -0.22157317 C106.64317919 -0.25173002 114.95997573 -0.26654081 123.27688485 -0.26985329 C128.2453535 -0.27220455 133.21360252 -0.28117465 138.18201256 -0.30631447 C142.85812789 -0.3295922 147.53387898 -0.33382962 152.21003723 -0.32355309 C153.92448449 -0.32305752 155.63894966 -0.32938414 157.35334206 -0.34310913 C159.69839884 -0.36082941 162.04214868 -0.35372228 164.38720703 -0.34057617 C165.6981644 -0.34296453 167.00912176 -0.34535288 168.35980511 -0.34781361 C173.86278036 0.3982001 177.52306664 2.58085946 181.38606262 6.64717102 C184.23347866 11.02781108 184.1391109 14.86503261 184.15150452 20.03494263 C184.15447564 20.72762527 184.15744676 21.42030791 184.16050792 22.13398093 C184.16917801 24.454552 184.17070173 26.77507137 184.17219543 29.09565735 C184.17682478 30.7597464 184.1818496 32.42383439 184.1872406 34.08792114 C184.20035485 38.60867087 184.20680759 43.12940575 184.21125126 47.65017152 C184.2141834 50.47513354 184.21828847 53.30009152 184.22275543 56.1250515 C184.23642745 64.96543001 184.2460957 73.80579925 184.24995732 82.6461876 C184.25443827 92.84803728 184.27198914 103.049753 184.30095792 113.25156194 C184.32257844 121.13958759 184.33266179 129.02757556 184.33399844 136.91563052 C184.33504615 141.62581101 184.3409468 146.33586551 184.35881805 151.04601479 C184.37530525 155.47752527 184.3774511 159.90881514 184.36867905 164.34034538 C184.36790903 165.96448482 184.37224668 167.58863616 184.3821373 169.21274567 C184.39487365 171.434908 184.38897151 173.65629092 184.3785553 175.87844849 C184.38002186 177.12043912 184.38148842 178.36242975 184.38299942 179.64205647 C183.83732626 184.78445413 182.08338847 189.77695513 178.41146851 193.53813171 C172.44142452 198.20330949 163.79629669 196.96016999 156.60456848 196.89179993 C154.8201818 196.89665912 153.03580057 196.90410103 151.25143433 196.91392517 C146.4165974 196.93270415 141.58257299 196.91392728 136.74779963 196.88726091 C131.6843944 196.86459477 126.62102808 196.8728497 121.55758667 196.87675476 C113.05618547 196.87851939 104.55510362 196.85638521 96.05378723 196.8195343 C86.22828898 196.77718701 76.40325824 196.7701828 66.5776872 196.78265822 C57.12002264 196.79405117 47.66252252 196.78274851 38.20488167 196.76031113 C34.1822715 196.75102796 30.15976205 196.74926758 26.13714409 196.75348282 C21.4001408 196.75725282 16.6636127 196.74100943 11.92671776 196.70936203 C10.18930274 196.70088446 8.45183946 196.69916984 6.71441269 196.70474243 C4.34072536 196.71120024 1.96845165 196.6929926 -0.40509033 196.66856384 C-1.43394139 196.67990181 -1.43394139 196.67990181 -2.48357731 196.69146883 C-7.40595645 196.60198025 -10.19796978 195.22234184 -13.98893738 192.14717102 C-19.411717 184.72443942 -18.55375779 176.25023489 -18.5065155 167.45332336 C-18.5119411 165.75746053 -18.51906621 164.06160242 -18.52775574 162.36575317 C-18.54593731 157.77700907 -18.53894374 153.18862607 -18.5262394 148.59987593 C-18.51608821 143.79138204 -18.52551064 138.98291836 -18.53178406 134.17442322 C-18.53905289 126.10278286 -18.52949135 118.0312891 -18.51042175 109.95967102 C-18.48863973 100.6323328 -18.49571709 91.30534415 -18.51772738 81.97801435 C-18.53588555 73.96165934 -18.5384381 65.94540948 -18.5279727 57.92904055 C-18.52174197 53.14461004 -18.52089089 48.36034383 -18.53411865 43.57592392 C-18.54568313 39.07942283 -18.53764062 34.58337226 -18.51454163 30.08691978 C-18.50925835 28.43818217 -18.51076182 26.78940656 -18.51959229 25.14068413 C-18.53054673 22.88748447 -18.51678778 20.63572253 -18.49687195 18.38261414 C-18.49536385 17.12277395 -18.49385574 15.86293377 -18.49230194 14.56491661 C-17.72173946 9.3329501 -15.26641143 6.27256483 -11.36393738 2.83467102 C-7.33302682 -0.029397 -4.96112634 0.01619565 0 0 Z " fill="#454D4E" transform="translate(653.9889373779297,225.8528289794922)"/>
<path d="M0 0 C0.73199789 -0.00623996 1.46399577 -0.01247993 2.21817541 -0.01890898 C4.65412616 -0.03477622 7.08906748 -0.02226016 9.52502441 -0.00964355 C11.27822958 -0.01506749 13.03143018 -0.02219167 14.78462219 -0.03088379 C19.53464031 -0.04908784 24.28431013 -0.04206168 29.03433418 -0.02936745 C34.01052906 -0.01922466 38.98669455 -0.02863668 43.96289062 -0.03491211 C52.31877992 -0.04218478 60.6745277 -0.03261076 69.03039551 -0.0135498 C78.68431042 0.00821819 88.33788739 0.00116655 97.99179411 -0.02085543 C106.28754677 -0.03902023 114.58319782 -0.04156246 122.87896395 -0.03110075 C127.83055439 -0.02487177 132.7819861 -0.02401382 137.73356628 -0.0372467 C142.38928191 -0.04882029 147.04456278 -0.04075193 151.70023155 -0.01766968 C153.40660061 -0.01239064 155.1130064 -0.01388258 156.81936073 -0.02272034 C159.15325739 -0.03369184 161.48577097 -0.0198947 163.81958008 0 C165.12404335 0.0015081 166.42850662 0.0030162 167.77249908 0.00457001 C173.58754968 0.80931465 176.99774366 2.87021242 180.81554413 7.29818058 C182.70131261 11.0948677 182.91275338 13.63392366 182.91772461 17.86399841 C182.92396457 18.58289122 182.93020453 19.30178402 182.93663359 20.04246145 C182.95252865 22.44006359 182.9399738 24.8366441 182.92736816 27.23425293 C182.93279091 28.95775442 182.93991443 30.68125128 182.9486084 32.40473938 C182.96682796 37.07837459 182.95977952 41.75165619 182.94709206 46.4252975 C182.93695569 51.32008607 182.94635966 56.21484463 182.95263672 61.1096344 C182.95991195 69.33026558 182.95032939 77.55075296 182.93127441 85.7713623 C182.90951316 95.26904804 182.91655212 104.7663902 182.93858004 114.26406759 C182.9567462 122.4239206 182.95928619 130.58367031 182.94882536 138.74353701 C182.94259619 143.61465971 182.9417388 148.48562105 182.95497131 153.35673332 C182.96654662 157.93774769 182.95847343 162.51832027 182.93539429 167.09928703 C182.93011585 168.77824165 182.93160616 170.4572336 182.94044495 172.13617325 C182.9514191 174.43290905 182.93761625 176.72824015 182.91772461 179.02488708 C182.91621651 180.30852614 182.9147084 181.5921652 182.9131546 182.91470242 C182.16605107 188.24784788 180.35125241 191.88096521 176.12668514 195.42120457 C172.68907834 196.79621181 169.5845414 196.9273872 165.93946838 196.89561462 C164.8246005 196.90369293 164.8246005 196.90369293 163.68721002 196.91193444 C161.20141956 196.92622039 158.71616113 196.9191089 156.23034668 196.9119873 C154.44625928 196.91769055 152.66217553 196.92465463 150.87809753 196.93278503 C146.03511743 196.95073663 141.19231832 196.94954429 136.34931493 196.94384265 C132.30598724 196.94075369 128.26269446 196.94683999 124.21937174 196.9528814 C114.68068284 196.96693159 105.1420835 196.96536121 95.60339355 196.95397949 C85.76319683 196.94249746 75.92327263 196.95657428 66.08311182 196.98337597 C57.63371074 197.00552789 49.18439523 197.0121715 40.73496717 197.00629956 C35.68891242 197.0029276 30.64303237 197.00536093 25.59700203 197.02255058 C20.85187202 197.03800952 16.10714593 197.03407585 11.36203194 197.01524544 C9.62137428 197.01155665 7.88068677 197.01467648 6.14005661 197.02513123 C3.76193678 197.03832351 1.38515764 197.02681059 -0.99290466 197.00914001 C-2.02380208 197.02354752 -2.02380208 197.02354752 -3.0755257 197.0382461 C-8.00252253 196.96302533 -10.771142 195.54411303 -14.59020996 192.50793457 C-18.4952483 188.06427025 -18.71804101 184.33639095 -18.73738098 178.54386902 C-18.74105767 177.83091748 -18.74473436 177.11796593 -18.74852246 176.3834098 C-18.75955807 173.98830598 -18.7634029 171.59324555 -18.76721191 169.19812012 C-18.77347659 167.48329531 -18.7801234 165.76847186 -18.78712463 164.0536499 C-18.80453226 159.39035499 -18.81508548 154.72707033 -18.82333016 150.06375098 C-18.82848024 147.15085977 -18.83455593 144.23797174 -18.84084129 141.32508278 C-18.85989168 132.21293197 -18.87412383 123.10078926 -18.88245326 113.98862237 C-18.89222979 103.46693327 -18.91856078 92.94545431 -18.95895416 82.42383927 C-18.9890993 74.29296491 -19.00392056 66.16215085 -19.00723428 58.03122169 C-19.00958633 53.17402152 -19.01856719 48.3170459 -19.04369545 43.45990562 C-19.06695358 38.89047848 -19.07121855 34.32142409 -19.06093407 29.75195312 C-19.06043807 28.07578607 -19.06677745 26.3996008 -19.08049011 24.72348976 C-19.09818036 22.43286318 -19.09111832 20.1435786 -19.07795715 17.85295105 C-19.08034551 16.57186809 -19.08273386 15.29078512 -19.08519459 13.97088146 C-18.41122743 9.25576036 -16.795401 6.26944739 -13.03473979 3.26542062 C-8.7386531 0.51630115 -5.13866132 0.00594086 0 0 Z " fill="#415C50" transform="translate(204.5902099609375,225.4920654296875)"/>
<path d="M0 0 C1.10746092 -0.00573832 1.10746092 -0.00573832 2.23729479 -0.01159257 C4.71227481 -0.02191475 7.18702249 -0.01793193 9.66201782 -0.01396179 C11.43610346 -0.01830873 13.21018722 -0.02349182 14.98426819 -0.02944946 C19.80454951 -0.04285343 24.62475248 -0.04341652 29.44504881 -0.04088616 C33.46843684 -0.03981729 37.49180896 -0.04469775 41.51519358 -0.04949158 C51.00734368 -0.06059185 60.49945421 -0.06102141 69.99160767 -0.05497742 C79.78458969 -0.04893773 89.57742802 -0.06124733 99.37038553 -0.08254749 C107.77729375 -0.10016071 116.18415622 -0.10616524 124.59108222 -0.10290974 C129.612533 -0.10109612 134.63388131 -0.10374087 139.6553154 -0.11762428 C144.37820705 -0.13019325 149.10087471 -0.12826731 153.82376289 -0.11521339 C155.55635847 -0.11284594 157.28896976 -0.11558834 159.02154732 -0.12383652 C161.38856701 -0.13429171 163.75483348 -0.12621361 166.12182617 -0.11352539 C166.80588229 -0.12089968 167.4899384 -0.12827396 168.19472349 -0.13587171 C172.73778097 -0.08471379 175.83734546 0.86227565 179.68789673 3.26069641 C183.79876343 8.59371267 184.81192741 12.30836925 184.83506775 18.94555664 C184.83874444 19.62851219 184.84242113 20.31146773 184.84620923 21.0151189 C184.85724223 23.30881833 184.86108926 25.60247246 184.86489868 27.89619446 C184.87116368 29.53880965 184.87781051 31.18142342 184.8848114 32.82403564 C184.90585173 38.22348544 184.91621447 43.62293553 184.92617798 49.02241516 C184.93022569 50.88174263 184.93434262 52.74106995 184.93852806 54.60039711 C184.95758048 63.336661 184.97181083 72.07291645 184.98014003 80.80919713 C184.98990994 90.88996653 185.01622281 100.97051621 185.05664092 111.0512082 C185.08681592 118.84496168 185.10161026 126.63865223 185.10492104 134.43246299 C185.10727016 139.08628671 185.11621243 143.73987571 185.14138222 148.3936367 C185.16469187 152.77429626 185.1688846 157.15456705 185.15862083 161.5352726 C185.15812605 163.13964762 185.16442964 164.74404196 185.17817688 166.34835815 C185.30050092 181.47489017 185.30050092 181.47489017 180.68789673 188.26069641 C175.80275697 192.90753667 172.17765866 193.38630989 165.57870483 193.40786743 C164.85012465 193.41154412 164.12154446 193.41522081 163.37088609 193.41900891 C160.92283827 193.43004604 158.4748329 193.43388963 156.02676392 193.43769836 C154.27415329 193.44396298 152.52154399 193.45060978 150.76893616 193.45761108 C145.00755743 193.47865353 139.24617842 193.48901341 133.48477173 193.49897766 C131.50159949 193.5030251 129.51842739 193.50714202 127.53525543 193.51132774 C118.21860502 193.53037955 108.90196254 193.54461079 99.58529639 193.55293971 C88.82986721 193.56271354 78.07464375 193.58903693 67.31928706 193.62944061 C59.00665765 193.65959662 50.69408722 193.67440809 42.38140416 193.67772073 C37.4163038 193.68007175 32.45142323 193.68903902 27.48638153 193.7141819 C22.81435673 193.73745868 18.14269649 193.74169744 13.47062874 193.73142052 C11.75779317 193.73092495 10.04493969 193.73725144 8.33215904 193.75097656 C5.98934489 193.76869689 3.64783892 193.76158975 1.30502319 193.7484436 C-0.00463535 193.75083196 -1.3142939 193.75322031 -2.66363907 193.75568104 C-7.82926559 193.05486404 -11.62016045 191.12183352 -15.18710327 187.19819641 C-17.48812891 183.23531892 -17.44828542 179.87620195 -17.47273254 175.37928772 C-17.47782036 174.67520885 -17.48290818 173.97112998 -17.48815018 173.24571538 C-17.50387733 170.88059383 -17.51240038 168.51550283 -17.52084351 166.15034485 C-17.5303817 164.45684617 -17.54027285 162.76334945 -17.55049133 161.06985474 C-17.58187831 155.50328383 -17.60214229 149.93669796 -17.62069702 144.37007141 C-17.62399434 143.42305642 -17.62729167 142.47604143 -17.63068891 141.50032902 C-17.66146791 132.5694965 -17.68817576 123.63866061 -17.70510769 114.70779037 C-17.72701987 103.28401831 -17.76900484 91.86071592 -17.83854526 80.43713164 C-17.88578211 72.40475907 -17.91004076 64.37251324 -17.91730458 56.34000611 C-17.922261 51.54244579 -17.93734102 46.74541484 -17.97704887 41.94800568 C-18.01392352 37.43344067 -18.0223224 32.91970721 -18.00904274 28.40501976 C-18.00909667 26.75021475 -18.01938736 25.0953728 -18.04079437 23.44070625 C-18.21286484 9.38653465 -18.21286484 9.38653465 -14.51853943 4.84645081 C-10.06526016 0.63815553 -5.98987496 -0.03287887 0 0 Z " fill="#485153" transform="translate(203.31210327148438,445.7393035888672)"/>
<path d="M0 0 C0.73745286 -0.00297112 1.47490571 -0.00594224 2.23470563 -0.0090034 C4.71273082 -0.01769443 7.19070772 -0.01919899 9.66874695 -0.02069092 C11.44268395 -0.0253188 13.21661996 -0.03034342 14.99055481 -0.03573608 C19.81500595 -0.04886484 24.63944317 -0.05530596 29.46390939 -0.05974674 C32.47730653 -0.06267666 35.49069985 -0.06678132 38.50409508 -0.07125092 C47.93020272 -0.08492702 57.35630167 -0.09459316 66.78241855 -0.09845281 C77.66743075 -0.10293417 88.55231742 -0.12048523 99.43729144 -0.1494534 C107.84841905 -0.17106175 116.25951132 -0.18115663 124.6706664 -0.18249393 C129.69549488 -0.18354255 134.72020537 -0.18946256 139.74500465 -0.20731354 C144.47197392 -0.22377958 149.19873632 -0.22595685 153.92572403 -0.21717453 C155.65993618 -0.21640337 157.39415938 -0.22075723 159.12834358 -0.23063278 C161.49759286 -0.24333272 163.86610732 -0.23748649 166.23535156 -0.22705078 C166.9200898 -0.23510719 167.60482803 -0.24316359 168.31031591 -0.25146413 C174.15746815 -0.19131368 177.93348633 1.35251002 182.15140533 5.37528324 C184.27504467 8.91970104 184.31124928 11.2603938 184.31608582 15.38298035 C184.32232578 16.10172429 184.32856574 16.82046824 184.33499479 17.5609923 C184.35092131 19.96403212 184.33832263 22.36605707 184.32572937 24.769104 C184.33115072 26.49408051 184.33827345 28.21905239 184.3469696 29.9440155 C184.36520581 34.62590662 184.35813386 39.30744517 184.34545326 43.98934245 C184.33532552 48.8899434 184.34471847 53.79051419 184.35099792 58.69111633 C184.35827567 66.92191994 184.348684 75.15258 184.32963562 83.38336182 C184.30787387 92.8963834 184.31491267 102.40906197 184.33694124 111.92207521 C184.35510023 120.09123415 184.3576509 128.26028989 184.34718657 136.42946249 C184.34095346 141.30783398 184.34011086 146.18604433 184.35333252 151.06440544 C184.36489738 155.65196959 184.35685369 160.23909216 184.33375549 164.82660866 C184.32847148 166.50920758 184.32997693 168.19184374 184.33880615 169.8744278 C184.34975816 172.17375817 184.33600404 174.47167894 184.31608582 176.7709198 C184.31457771 178.05677947 184.31306961 179.34263914 184.31151581 180.66746426 C183.70304597 184.86561862 182.56570642 186.93140423 179.80815125 190.14044189 C175.37690549 193.0926844 171.4544128 193.57388999 166.25553894 193.52812195 C165.51552281 193.53350749 164.77550668 193.53889302 164.01306581 193.54444176 C161.54419902 193.55869955 159.07587004 193.55162324 156.60697937 193.54449463 C154.83259654 193.55019929 153.05821738 193.55716393 151.28384399 193.56529236 C146.47191344 193.58322683 141.66016522 193.582055 136.84821129 193.57634997 C132.82968664 193.57325899 128.81119706 193.57934947 124.7926774 193.58538872 C115.31294238 193.59943287 105.83329747 193.59787315 96.3535614 193.58648682 C86.57525926 193.57500138 76.79723126 193.58908868 67.01896524 193.61588329 C58.62049888 193.63803488 50.2221186 193.64467901 41.82362509 193.63880688 C36.80888395 193.63543533 31.79431861 193.63786575 26.77960205 193.65505791 C22.06482659 193.67051666 17.35045766 193.6665834 12.63569832 193.64775276 C10.90632772 193.64406413 9.17692708 193.64718335 7.44758415 193.65763855 C5.08484159 193.67083172 2.72344824 193.65931727 0.36076355 193.64164734 C-0.66327426 193.65605485 -0.66327426 193.65605485 -1.70799971 193.67075342 C-6.65156243 193.59479527 -9.43790569 192.30751981 -13.19184875 189.14044189 C-16.91569544 184.69564265 -17.69547075 181.61157314 -17.7199707 175.86703491 C-17.72832736 175.15701478 -17.73668402 174.44699465 -17.74529392 173.71545875 C-17.76818386 171.34788106 -17.76266831 168.98125507 -17.7570343 166.61358643 C-17.76737107 164.9114071 -17.77936102 163.20923713 -17.7928772 161.50708008 C-17.82390023 156.89126943 -17.829202 152.27577111 -17.82794547 147.65986872 C-17.82877657 143.80306283 -17.84102388 139.9463245 -17.85289508 136.08953941 C-17.88026177 126.98846244 -17.88559979 117.88754741 -17.87812805 108.78643799 C-17.87088706 99.40560028 -17.9043038 90.02551409 -17.95718545 80.64483941 C-18.00098536 72.58347179 -18.01768044 64.52234682 -18.01314956 56.46086204 C-18.01082907 51.64932778 -18.01911362 46.83840083 -18.0542202 42.02698135 C-18.08621313 37.50071022 -18.08433835 32.97568228 -18.05677605 28.44939423 C-18.05232679 26.79180315 -18.05974058 25.13412963 -18.08012009 23.47665787 C-18.24125719 9.41468405 -18.24125719 9.41468405 -13.82571411 4.15383911 C-9.58189658 0.1036762 -5.62758769 -0.00705234 0 0 Z " fill="#495153" transform="translate(428.1918487548828,445.85955810546875)"/>
<path d="M0 0 C0.72943461 -0.00367669 1.45886922 -0.00735338 2.21040791 -0.01114148 C4.65534969 -0.02215717 7.10024894 -0.02601853 9.54521179 -0.02983093 C11.29796991 -0.03609709 13.05072671 -0.04274402 14.80348206 -0.04974365 C20.55942361 -0.07076497 26.31536537 -0.0811429 32.07133484 -0.09111023 C34.05358074 -0.09515823 36.03582651 -0.09927517 38.01807213 -0.10346031 C47.32937975 -0.12250619 56.64067947 -0.1367396 65.95200282 -0.14507228 C76.69893192 -0.15484875 87.44565527 -0.1811815 98.19251186 -0.22157317 C106.50091518 -0.25172836 114.8092595 -0.26654051 123.11771649 -0.26985329 C128.07944857 -0.27220407 133.04096069 -0.28116853 138.00263405 -0.30631447 C142.67056832 -0.3295903 147.3381377 -0.33383039 152.00611496 -0.32355309 C153.71733883 -0.32305753 155.42858063 -0.32938386 157.13974953 -0.34310913 C159.48032105 -0.36082951 161.81958315 -0.35372235 164.16015625 -0.34057617 C166.12269584 -0.3441587 166.12269584 -0.3441587 168.1248827 -0.34781361 C173.5006089 0.38206627 177.13234912 2.17604884 180.68382359 6.44925785 C182.06619291 9.88112447 182.15115532 12.61211466 182.15823364 16.31378174 C182.16631195 17.379647 182.16631195 17.379647 182.17455345 18.46704489 C182.18883324 20.84228714 182.18172952 23.21697209 182.17460632 25.59223938 C182.1803099 27.29751025 182.18727411 29.0027773 182.19540405 30.70803833 C182.21335206 35.33615171 182.21216399 39.96407566 182.20646167 44.59221339 C182.20337218 48.45659806 182.2094596 52.32094621 182.21550041 56.18532568 C182.22954944 65.30211424 182.22798122 74.4188091 182.21659851 83.53559875 C182.20511669 92.93954765 182.21919317 102.34321139 182.24599499 111.7471227 C182.26814927 119.82285475 182.27478998 127.89849726 182.26891857 135.97425753 C182.26554717 140.79674995 182.26797627 145.61905956 182.2851696 150.44152641 C182.30063233 154.97654426 182.29669074 159.51113955 182.27786446 164.04614067 C182.2741767 165.70939554 182.27729251 167.37268167 182.28775024 169.03590775 C182.30094986 171.30895106 182.2894236 173.58059333 182.27175903 175.85357666 C182.27154975 177.12468764 182.27134047 178.39579863 182.27112484 179.70542812 C181.55923611 184.60011192 179.38982168 187.72417785 175.70805359 190.95967102 C171.71367463 193.40783877 168.2460699 193.27936466 163.66136169 193.29434204 C162.93278151 193.29801873 162.20420132 193.30169542 161.45354295 193.30548352 C159.00549513 193.31652064 156.55748976 193.32036424 154.10942078 193.32417297 C152.35681015 193.33043759 150.60420086 193.33708439 148.85159302 193.34408569 C143.09021429 193.36512814 137.32883528 193.37548802 131.56742859 193.38545227 C129.58425635 193.38949971 127.60108425 193.39361663 125.61791229 193.39780235 C116.30126188 193.41685416 106.9846194 193.4310854 97.66795325 193.43941432 C86.91252407 193.44918815 76.15730061 193.47551154 65.40194392 193.51591522 C57.08931451 193.54607123 48.77674408 193.5608827 40.46406102 193.56419533 C35.49896066 193.56654635 30.53408009 193.57551363 25.56903839 193.60065651 C20.89701359 193.62393329 16.22535335 193.62817205 11.5532856 193.61789513 C9.84045003 193.61739956 8.12759655 193.62372604 6.4148159 193.63745117 C4.07200175 193.6551715 1.73049578 193.64806436 -0.61231995 193.63491821 C-1.92197849 193.63730657 -3.23163704 193.63969492 -4.58098221 193.64215565 C-9.57158986 192.96508334 -13.25756768 191.51006323 -16.53754026 187.57968885 C-19.18358223 183.41215564 -19.72981214 179.86628356 -19.73065186 174.89863586 C-19.73618625 174.20338995 -19.74172065 173.50814404 -19.74742275 172.79183006 C-19.76095179 170.48021731 -19.74610361 168.16969894 -19.7311554 165.85810852 C-19.73494142 164.19357344 -19.74044379 162.52904152 -19.74752808 160.86451721 C-19.76146307 156.35620644 -19.75032671 151.84827815 -19.73381686 147.33998871 C-19.71994135 142.61604531 -19.72642929 137.89212355 -19.72994995 133.16816711 C-19.7326501 125.2359757 -19.71919331 117.30393576 -19.69599915 109.3717804 C-19.66939065 100.20868908 -19.66764305 91.04585101 -19.67938751 81.8827343 C-19.69017684 73.05835107 -19.68396914 64.23405921 -19.66983223 55.40968323 C-19.66408246 51.65864393 -19.66414717 47.90767172 -19.66889763 44.15663147 C-19.67367946 39.7373502 -19.66351587 35.31834526 -19.64194298 30.89911652 C-19.63639135 29.2798277 -19.63589486 27.66051223 -19.64089584 26.04122162 C-19.64687864 23.82574593 -19.63428748 21.61110669 -19.61712646 19.39570618 C-19.61469657 18.157612 -19.61226667 16.91951782 -19.60976315 15.64390564 C-19.0430596 10.43348041 -17.62520827 6.50714412 -13.79194641 2.77217102 C-9.26218798 -0.10035872 -5.31774765 0.01738433 0 0 Z " fill="#485052" transform="translate(655.2294464111328,445.8528289794922)"/>
<path d="M0 0 C15.51 0 31.02 0 47 0 C62.00818413 51.80559393 62.00818413 51.80559393 66.9375 69.5 C67.26041016 70.64621826 67.58332031 71.79243652 67.91601562 72.97338867 C68.34237305 74.51796753 68.34237305 74.51796753 68.77734375 76.09375 C69.01702881 76.95677734 69.25671387 77.81980469 69.50366211 78.70898438 C70 81 70 81 70 85 C70.66 85 71.32 85 72 85 C72.18866135 83.4802935 72.18866135 83.4802935 72.38113403 81.92988586 C72.96991603 78.19103743 73.82859292 74.74786135 74.90185547 71.12182617 C75.09225403 70.47362411 75.28265259 69.82542206 75.4788208 69.15757751 C76.10364741 67.03464388 76.73534938 64.91382507 77.3671875 62.79296875 C77.80739681 61.30247703 78.24717834 59.81185891 78.68655396 58.32112122 C79.84171803 54.40612831 81.00276199 50.49290325 82.16503906 46.58001709 C83.33893183 42.62408325 84.50706621 38.6664503 85.67578125 34.70898438 C89.09626291 23.13299212 92.53148268 11.56172439 96 0 C111.51 0 127.02 0 143 0 C143 44.55 143 89.1 143 135 C133.43 135 123.86 135 114 135 C113.67 104.31 113.34 73.62 113 42 C110.36 51.9 107.72 61.8 105 72 C103.16307089 78.63050905 101.31770341 85.25690437 99.4375 91.875 C98.97021311 93.52609953 98.50301084 95.177223 98.03588867 96.82836914 C94.42568397 109.57254418 90.73750151 122.29249486 87 135 C77.1 135 67.2 135 57 135 C55.16945905 130.11855746 53.46858487 125.46935736 52.01171875 120.50390625 C51.64167725 119.24602295 51.27163574 117.98813965 50.89038086 116.69213867 C50.48921193 115.31565324 50.0882584 113.93910501 49.6875 112.5625 C49.26250196 111.10976704 48.83745155 109.6570494 48.41235352 108.2043457 C44.37469147 94.37874567 40.40423297 80.53358095 36.4375 66.6875 C35.96780289 65.05084885 35.96780289 65.05084885 35.48861694 63.38113403 C34.59309493 60.25861455 33.70039247 57.13530338 32.80859375 54.01171875 C32.53924011 53.07353302 32.26988647 52.13534729 31.99237061 51.16873169 C31.74408508 50.29667084 31.49579956 49.42460999 31.23999023 48.52612305 C31.0236644 47.76929733 30.80733856 47.01247162 30.5844574 46.23271179 C29.95944766 43.84508418 29.48402967 41.42014836 29 39 C29 70.68 29 102.36 29 135 C19.43 135 9.86 135 0 135 C0 90.45 0 45.9 0 0 Z " fill="#EAEAE8" transform="translate(665,474)"/>
<path d="M0 0 C7.66744403 6.44892969 13.01072632 13.78244028 16.60546875 23.19140625 C16.60546875 24.51140625 16.60546875 25.83140625 16.60546875 27.19140625 C12.54816981 28.39719526 8.48395997 29.57779309 4.41796875 30.75390625 C3.26748047 31.09615234 2.11699219 31.43839844 0.93164062 31.79101562 C-0.18017578 32.11005859 -1.29199219 32.42910156 -2.4375 32.7578125 C-3.9692688 33.2055603 -3.9692688 33.2055603 -5.53198242 33.66235352 C-8.56388167 34.22270539 -10.46953976 34.1218957 -13.39453125 33.19140625 C-14.94921875 31.30078125 -14.94921875 31.30078125 -16.26953125 28.94140625 C-20.91516439 21.53191542 -26.1074935 18.69868831 -34.57421875 16.703125 C-43.83068232 15.02362815 -51.2070867 16.35337083 -59.39453125 21.19140625 C-68.25451224 28.65168341 -71.70793696 38.04180616 -73.39453125 49.19140625 C-74.63515935 63.98257079 -74.25220997 78.79749197 -65.23046875 91.25390625 C-58.99094384 97.83859637 -50.62054644 101.20025415 -41.70703125 101.56640625 C-33.27110263 101.41969445 -24.86320601 98.73598461 -18.39453125 93.19140625 C-14.11920425 87.8135594 -12.64244696 82.93515338 -10.39453125 76.19140625 C-20.62453125 76.19140625 -30.85453125 76.19140625 -41.39453125 76.19140625 C-41.39453125 67.61140625 -41.39453125 59.03140625 -41.39453125 50.19140625 C-20.93453125 50.19140625 -0.47453125 50.19140625 20.60546875 50.19140625 C20.60546875 74.61140625 20.60546875 99.03140625 20.60546875 124.19140625 C12.68546875 124.19140625 4.76546875 124.19140625 -3.39453125 124.19140625 C-4.71453125 120.23140625 -6.03453125 116.27140625 -7.39453125 112.19140625 C-8.67328125 113.40828125 -9.95203125 114.62515625 -11.26953125 115.87890625 C-22.71310296 125.9520969 -36.54824736 128.89840472 -51.59375 128.5390625 C-68.59080007 126.98434775 -82.17645272 119.67148362 -93.36328125 106.953125 C-103.91018112 93.19127101 -106.791546 75.95282378 -106.76953125 59.06640625 C-106.76791992 57.78338623 -106.76630859 56.50036621 -106.76464844 55.1784668 C-106.64047505 45.55929046 -105.61929229 37.26104666 -102.39453125 28.19140625 C-102.10578125 27.27101563 -101.81703125 26.350625 -101.51953125 25.40234375 C-96.58708235 11.17751344 -85.37654773 0.23428159 -72.39453125 -6.80859375 C-68.79269162 -8.42615632 -65.18175252 -9.6986423 -61.39453125 -10.80859375 C-60.65332031 -11.03417969 -59.91210938 -11.25976562 -59.1484375 -11.4921875 C-39.27103801 -16.48737455 -16.20437888 -12.41040582 0 0 Z " fill="#EAEAE8" transform="translate(326.39453125,484.80859375)"/>
<path d="M0 0 C12.87 0 25.74 0 39 0 C43.49894842 11.24737106 43.49894842 11.24737106 45.39086914 16.62597656 C46.02787498 18.43162079 46.02787498 18.43162079 46.67774963 20.27374268 C46.89834108 20.90217323 47.11893253 21.53060379 47.34620857 22.1780777 C48.05744844 24.20412689 48.77139994 26.22920421 49.48594666 28.25408936 C51.01379901 32.5852389 52.53834956 36.9175466 54.0625 41.25 C56.05100845 46.90188099 58.04107893 52.55320609 60.03515625 58.203125 C60.28146601 58.90101765 60.52777576 59.59891029 60.78154945 60.3179512 C65.65583253 74.1168164 70.67314336 87.86086478 75.741745 101.58944702 C77.89726815 107.43208295 80.04153304 113.2788486 82.1875 119.125 C83.2409611 121.99241221 84.29464582 124.85974211 85.34838867 127.72705078 C86 130 86 130 86 134 C74.78 134 63.56 134 52 134 C49.80285357 128.87332499 47.9437909 124.03321405 46.3125 118.75 C45.97508789 117.69039062 45.97508789 117.69039062 45.63085938 116.609375 C44.70359842 113.63312098 44 111.1361445 44 108 C28.16 108.33 12.32 108.66 -4 109 C-6.64 117.25 -9.28 125.5 -12 134 C-23.55 134 -35.1 134 -47 134 C-45.06239028 127.54130094 -43.08112761 121.19939089 -40.8046875 114.8671875 C-40.50005081 114.01312317 -40.19541412 113.15905884 -39.88154602 112.27911377 C-39.22464555 110.43830955 -38.56661858 108.597907 -37.90756226 106.75787354 C-36.48605943 102.78909312 -35.07006759 98.81835293 -33.65367126 94.8477478 C-32.90791193 92.75733494 -32.16186503 90.66702464 -31.4155426 88.57681274 C-27.31856206 77.10029564 -23.25250182 65.61287397 -19.1875 54.125 C-17.77619444 50.13796674 -16.36467043 46.15101084 -14.953125 42.1640625 C-14.44786034 40.73681351 -14.44786034 40.73681351 -13.93238831 39.2807312 C-9.2957596 26.18449087 -4.64776387 13.09229258 0 0 Z " fill="#EBEBE8" transform="translate(490,475)"/>
<path d="M0 0 C31.35 0 62.7 0 95 0 C95 8.58 95 17.16 95 26 C74.21 26 53.42 26 32 26 C32 34.25 32 42.5 32 51 C49.49 51 66.98 51 85 51 C85 59.58 85 68.16 85 77 C67.84 77.33 50.68 77.66 33 78 C33 86.91 33 95.82 33 105 C53.46 105.33 73.92 105.66 95 106 C95 115.24 95 124.48 95 134 C63.65 134 32.3 134 0 134 C0 89.78 0 45.56 0 0 Z " fill="#E9E9E7" transform="translate(466,692)"/>
<path d="M0 0 C217.14 0 434.28 0 658 0 C657.34 0.99 656.68 1.98 656 3 C654.03113776 3.3754315 654.03113776 3.3754315 651.5604372 3.37604749 C650.61900022 3.38355805 649.67756323 3.3910686 648.70759785 3.39880675 C647.66418166 3.39178325 646.62076546 3.38475975 645.54573059 3.37752342 C644.43982571 3.38188374 643.33392082 3.38624407 642.19450366 3.39073652 C638.44440837 3.40178882 634.69467342 3.39122438 630.94458008 3.38095093 C628.24664894 3.38440356 625.54874362 3.3890416 622.85081959 3.39513266 C616.96218225 3.40600032 611.07362732 3.40561916 605.18498611 3.39799118 C596.42862473 3.38667907 587.67233331 3.39242646 578.91597244 3.4016161 C563.28034353 3.41744357 547.64475131 3.41603215 532.00911888 3.40737936 C518.32643868 3.39984416 504.64377194 3.39785723 490.96109009 3.4014473 C489.60172549 3.40179103 489.60172549 3.40179103 488.21489898 3.40214171 C484.53652054 3.40307566 480.85814212 3.40403086 477.17976369 3.405021 C442.64651331 3.41420598 408.11328635 3.40586498 373.58003958 3.38973031 C342.87333415 3.37549261 312.16666604 3.37676645 281.45996094 3.39111328 C246.99143113 3.40716373 212.52292203 3.41355469 178.054389 3.40427649 C174.38256264 3.40331428 170.71073628 3.40237576 167.03890991 3.4014473 C166.13475734 3.40121006 165.23060478 3.40097283 164.29905365 3.40072841 C150.62218448 3.39731043 136.94533024 3.40131715 123.26846313 3.40888596 C107.72327043 3.4174456 92.17812028 3.41535811 76.6329329 3.39904372 C67.92391467 3.39020624 59.21498849 3.38970083 50.50597257 3.40098225 C44.69829638 3.40767812 38.89069445 3.40357982 33.08302933 3.39046794 C29.76756732 3.3832892 26.45232726 3.38260311 23.1368643 3.39168589 C19.5758183 3.40069928 16.01528764 3.39156368 12.45426941 3.37752342 C10.88914512 3.38805867 10.88914512 3.38805867 9.29240215 3.39880675 C8.35096516 3.3912962 7.40952818 3.38378564 6.4395628 3.37604749 C5.62423161 3.37584421 4.80890043 3.37564094 3.96886224 3.3754315 C2.99427543 3.18959291 2.99427543 3.18959291 2 3 C1.34 2.01 0.68 1.02 0 0 Z " fill="#141618" transform="translate(183,880)"/>
<path d="M0 0 C1.79551088 2.69326632 2.63859974 4.59385727 3.60400391 7.62329102 C3.90416412 8.55758438 4.20432434 9.49187775 4.51358032 10.45448303 C4.83136444 11.46079269 5.14914856 12.46710236 5.4765625 13.50390625 C5.80667328 14.53813217 6.13678406 15.57235809 6.47689819 16.63792419 C7.17338316 18.82357077 7.86754891 21.00995755 8.55957031 23.19702148 C9.62245096 26.5544481 10.69345373 29.90920208 11.765625 33.26367188 C12.44058711 35.38526308 13.11508228 37.50700291 13.7890625 39.62890625 C14.11089508 40.63724014 14.43272766 41.64557404 14.76431274 42.6844635 C15.05816864 43.61560471 15.35202454 44.54674591 15.65478516 45.50610352 C15.91522614 46.32756363 16.17566711 47.14902374 16.44400024 47.99537659 C17 50 17 50 17 52 C5.78 52 -5.44 52 -17 52 C-15.0906009 44.99886997 -13.14401391 38.09829661 -10.8984375 31.2109375 C-10.61650543 30.3410318 -10.33457336 29.4711261 -10.0440979 28.57485962 C-9.45549222 26.76123889 -8.86558895 24.9480388 -8.27441406 23.13525391 C-7.36621334 20.3480342 -6.46414622 17.55887728 -5.5625 14.76953125 C-4.98734337 12.99988159 -4.41183565 11.23034599 -3.8359375 9.4609375 C-3.56615082 8.62565521 -3.29636414 7.79037292 -3.0184021 6.92977905 C-1.11482756 1.11482756 -1.11482756 1.11482756 0 0 Z " fill="#4C5557" transform="translate(510,506)"/>
<path d="M0 0 C0.33 0 0.66 0 1 0 C1 44.55 1 89.1 1 135 C10.57 135 20.14 135 30 135 C29.67 102.33 29.34 69.66 29 36 C31.67395858 38.67395858 31.82284606 40.82008865 32.671875 44.51171875 C34.40733658 51.79402634 36.35449727 59.00324201 38.390625 66.20703125 C38.69886703 67.29775436 39.00710907 68.38847748 39.32469177 69.51225281 C40.29754249 72.94631199 41.27355412 76.3794615 42.25 79.8125 C42.92263303 82.18383063 43.59524035 84.55516855 44.26782227 86.92651367 C48.73422466 102.65235759 53.29362762 118.3441082 58 134 C67.9 134.33 77.8 134.66 88 135 C88.54140625 132.62425781 89.0828125 130.24851562 89.640625 127.80078125 C92.03607068 117.51001616 94.88132266 107.35440675 97.75 97.1875 C98.28200623 95.29125354 98.8137416 93.39493107 99.34521484 91.49853516 C101.70468715 83.09013583 104.08200008 74.68697606 106.4921875 66.29296875 C106.67809448 65.64508896 106.86400146 64.99720917 107.05554199 64.32969666 C107.89519522 61.40612658 108.73885348 58.48380891 109.58886719 55.56323242 C111.27203503 49.74019383 112.75426594 43.93265428 114 38 C114.33 38 114.66 38 115 38 C115 70.01 115 102.02 115 135 C114.67 135 114.34 135 114 135 C113.67 107.61 113.34 80.22 113 52 C111.35128906 57.89617188 109.70257812 63.79234375 108.00390625 69.8671875 C106.96051038 73.59511509 105.91699515 77.32300843 104.87304688 81.05078125 C103.21488974 86.9718401 101.5571837 92.89302272 99.90209961 98.81494141 C98.56819554 103.587566 97.2323224 108.35963535 95.8950634 113.13132095 C95.38440241 114.95483762 94.87445964 116.77855556 94.36523628 118.60247421 C93.65365738 121.15071611 92.93956258 123.69824002 92.22485352 126.24560547 C91.90764595 127.38496048 91.90764595 127.38496048 91.58403015 128.54733276 C90.11405216 133.77189568 90.11405216 133.77189568 89 136 C78.44 136 67.88 136 57 136 C54.94638234 131.20822547 53.28260754 126.93993231 51.85522461 121.99829102 C51.56677925 121.0065387 51.56677925 121.0065387 51.27250671 119.99475098 C50.64478716 117.83236349 50.02346414 115.66819759 49.40234375 113.50390625 C48.96336815 111.98597753 48.52403612 110.46815185 48.08436584 108.95042419 C47.16638589 105.77819625 46.25132913 102.60514576 45.33862305 99.43139648 C44.17377567 95.38101768 43.0037843 91.33214913 41.83185482 87.28381443 C40.7076538 83.39938289 39.5862089 79.51415719 38.46484375 75.62890625 C38.25326063 74.89679995 38.04167751 74.16469364 37.82368279 73.4104023 C37.21939613 71.31773678 36.61709306 69.22451053 36.01538086 67.13110352 C35.67357285 65.94420425 35.33176483 64.75730499 34.979599 63.53443909 C33.91897984 59.70767547 32.96311482 55.8524593 32 52 C31.67 79.72 31.34 107.44 31 136 C20.77 136 10.54 136 0 136 C-1.28623736 133.42752529 -1.12587245 131.59839301 -1.12698364 128.71702576 C-1.12980347 127.5966391 -1.13262329 126.47625244 -1.13552856 125.32191467 C-1.13350433 124.08702805 -1.1314801 122.85214142 -1.12939453 121.57983398 C-1.13114685 120.28392334 -1.13289917 118.9880127 -1.13470459 117.65283203 C-1.13927282 114.09307003 -1.13749198 110.53333693 -1.1343255 106.9735744 C-1.1317993 103.25444125 -1.13414012 99.53531062 -1.13571167 95.81617737 C-1.13753237 89.5708878 -1.13512941 83.32561004 -1.13037109 77.08032227 C-1.12492628 69.85031292 -1.12669311 62.62033177 -1.1321975 55.3903231 C-1.13672861 49.19158989 -1.13737926 42.99286519 -1.13475883 36.79413086 C-1.13319635 33.08796829 -1.13300155 29.381819 -1.13629532 25.67565727 C-1.13970784 21.54734489 -1.13498436 17.41908148 -1.12939453 13.29077148 C-1.13141876 12.05386063 -1.13344299 10.81694977 -1.13552856 9.54255676 C-1.13129883 7.86620651 -1.13129883 7.86620651 -1.12698364 6.1559906 C-1.12660662 5.1787223 -1.12622959 4.20145399 -1.12584114 3.1945715 C-1 1 -1 1 0 0 Z " fill="#090A0A" transform="translate(664,474)"/>
<path d="M0 0 C46.53 0.495 46.53 0.495 94 1 C94 8.92 94 16.84 94 25 C73.54 25 53.08 25 32 25 C32 24.67 32 24.34 32 24 C52.13 24 72.26 24 93 24 C93 16.74 93 9.48 93 2 C63.3 2 33.6 2 3 2 C3.33 5.96 3.66 9.92 4 14 C3.92563097 16.42239937 3.78965974 18.84437437 3.56860352 21.2578125 C2.72111117 32.11901575 2.87565337 42.98789909 2.90234375 53.875 C2.90421315 56.13899708 2.90563458 58.40299456 2.90663147 60.66699219 C2.91041556 66.57199253 2.92020984 72.47696754 2.93133545 78.38195801 C2.94345629 85.49581377 2.9479714 92.60967809 2.95378876 99.72354126 C2.96342453 110.48237836 2.98260963 121.24116008 3 132 C33.03 132.33 63.06 132.66 94 133 C94 124.75 94 116.5 94 108 C73.54 108 53.08 108 32 108 C32 107.67 32 107.34 32 107 C52.79 106.67 73.58 106.34 95 106 C95 115.24 95 124.48 95 134 C63.65 134 32.3 134 0 134 C0 89.78 0 45.56 0 0 Z " fill="#DDDEDD" transform="translate(466,692)"/>
<path d="M0 0 C15.51 0 31.02 0 47 0 C47 44.55 47 89.1 47 135 C37.43 135 27.86 135 18 135 C17.97739078 122.99520156 17.95905116 110.99041731 17.94818783 98.98560238 C17.94297349 93.41104782 17.93590214 87.83650861 17.92456055 82.26196289 C17.9136802 76.88032951 17.90771224 71.49871087 17.90512276 66.11706734 C17.90327779 64.06581961 17.89967505 62.01457266 17.89426994 59.96333122 C17.88699122 57.08613223 17.88601194 54.20899386 17.88647461 51.33178711 C17.88287933 50.48733536 17.87928406 49.64288361 17.87557983 48.77284241 C17.88373148 44.07552227 18.21700708 39.63336055 19 35 C19.33 35 19.66 35 20 35 C20 67.34 20 99.68 20 133 C28.25 133 36.5 133 45 133 C45 89.77 45 46.54 45 2 C30.48 2 15.96 2 1 2 C0.34 5.3 -0.32 8.6 -1 12 C-1.33 12 -1.66 12 -2 12 C-1.85831863 10.56208484 -1.71148957 9.1246763 -1.5625 7.6875 C-1.48128906 6.88699219 -1.40007813 6.08648437 -1.31640625 5.26171875 C-1 3 -1 3 0 0 Z " fill="#F4F4F2" transform="translate(761,474)"/>
<path d="M0 0 C0.33 0 0.66 0 1 0 C1.02886338 4.47915328 1.04675187 8.95828291 1.0625 13.4375 C1.07087891 14.71689453 1.07925781 15.99628906 1.08789062 17.31445312 C1.09111328 18.52939453 1.09433594 19.74433594 1.09765625 20.99609375 C1.10289307 22.12200928 1.10812988 23.2479248 1.11352539 24.40795898 C1 27 1 27 0 28 C-1.93306498 28.09396057 -3.86958838 28.11743517 -5.80493164 28.11352539 C-7.66674828 28.11341209 -7.66674828 28.11341209 -9.56617737 28.11329651 C-10.9308374 28.10818911 -12.29549702 28.1029731 -13.66015625 28.09765625 C-15.04878183 28.095792 -16.43740807 28.09436813 -17.82603455 28.09336853 C-21.48721115 28.08954387 -25.1483483 28.07971403 -28.80950928 28.06866455 C-32.54292263 28.05844932 -36.27634234 28.05387067 -40.00976562 28.04882812 C-47.33986385 28.0380917 -54.66992138 28.02049534 -62 28 C-62 34.93 -62 41.86 -62 49 C-60.46029541 48.99476318 -58.92059082 48.98952637 -57.33422852 48.98413086 C-51.6446185 48.96608826 -45.95501103 48.95457071 -40.26538086 48.94506836 C-37.79857967 48.94002644 -35.33178148 48.93319309 -32.86499023 48.92456055 C-29.32795471 48.91248875 -25.79095855 48.90677044 -22.25390625 48.90234375 C-21.14350479 48.89718246 -20.03310333 48.89202118 -18.88905334 48.88670349 C-17.35757912 48.88659019 -17.35757912 48.88659019 -15.79516602 48.88647461 C-14.89137711 48.884254 -13.9875882 48.88203339 -13.05641174 48.87974548 C-11 49 -11 49 -10 50 C-9.91232888 52.07262076 -9.89304127 54.14820294 -9.90234375 56.22265625 C-9.90484131 57.35711182 -9.90733887 58.49156738 -9.90991211 59.66040039 C-9.91901611 61.11309326 -9.92812012 62.56578613 -9.9375 64.0625 C-9.958125 68.661875 -9.97875 73.26125 -10 78 C-27.16 78 -44.32 78 -62 78 C-62 86.91 -62 95.82 -62 105 C-41.54 105 -21.08 105 0 105 C0 105.33 0 105.66 0 106 C-21.12 106 -42.24 106 -64 106 C-64 96.43 -64 86.86 -64 77 C-46.51 77 -29.02 77 -11 77 C-11 68.42 -11 59.84 -11 51 C-28.49 51 -45.98 51 -64 51 C-64 42.75 -64 34.5 -64 26 C-42.88 26 -21.76 26 0 26 C0 17.42 0 8.84 0 0 Z " fill="#050606" transform="translate(562,692)"/>
<path d="M0 0 C30.36 0 60.72 0 92 0 C92 8.58 92 17.16 92 26 C71.21 26 50.42 26 29 26 C29 34.25 29 42.5 29 51 C46.49 51 63.98 51 82 51 C82 59.58 82 68.16 82 77 C64.51 77 47.02 77 29 77 C29 76.34 29 75.68 29 75 C45.83 75 62.66 75 80 75 C80 67.74 80 60.48 80 53 C78.46029541 53.00523682 76.92059082 53.01047363 75.33422852 53.01586914 C69.6446185 53.03391174 63.95501103 53.04542929 58.26538086 53.05493164 C55.79857967 53.05997356 53.33178148 53.06680691 50.86499023 53.07543945 C47.32795471 53.08751125 43.79095855 53.09322956 40.25390625 53.09765625 C39.14350479 53.10281754 38.03310333 53.10797882 36.88905334 53.11329651 C35.35757912 53.11340981 35.35757912 53.11340981 33.79516602 53.11352539 C32.43948265 53.11685631 32.43948265 53.11685631 31.05641174 53.12025452 C29 53 29 53 28 52 C28 43.09 28 34.18 28 25 C48.79 25 69.58 25 91 25 C91 17.08 91 9.16 91 1 C60.97 1 30.94 1 0 1 C0 0.67 0 0.34 0 0 Z " fill="#FDFDFC" transform="translate(469,692)"/>
<path d="M0 0 C2.25 4.5 2.25 4.5 2.24050903 8.12554932 C2.24325836 8.93880676 2.24600769 9.75206421 2.24884033 10.58996582 C2.24164978 11.47325562 2.23445923 12.35654541 2.22705078 13.26660156 C2.22734283 14.20352844 2.22763489 15.14045532 2.22793579 16.10577393 C2.22654311 19.20081868 2.21098466 22.29562233 2.1953125 25.390625 C2.19158215 27.53725045 2.18873528 29.68387761 2.18673706 31.83050537 C2.17910232 37.47925521 2.15945511 43.12790214 2.1373291 48.77661133 C2.11686731 54.54116422 2.10773462 60.30573375 2.09765625 66.0703125 C2.07620912 77.38026081 2.04102819 88.69010575 2 100 C-7.57 100 -17.14 100 -27 100 C-27.04515759 87.81300789 -27.08186241 75.62607122 -27.10362434 63.43901443 C-27.11406817 57.78027492 -27.12823838 52.12159553 -27.15087891 46.46289062 C-27.17258581 41.00346026 -27.18456411 35.5440878 -27.18975449 30.08461761 C-27.1934541 28.00018146 -27.20067838 25.91574853 -27.21146011 23.83133698 C-27.22594632 20.91515721 -27.22797913 17.99921768 -27.22705078 15.08300781 C-27.23424133 14.21841949 -27.24143188 13.35383118 -27.24884033 12.46304321 C-27.246091 11.66661407 -27.24334167 10.87018494 -27.24050903 10.04962158 C-27.24235262 9.36012043 -27.24419621 8.67061928 -27.24609566 7.96022415 C-27 6 -27 6 -25 2 C-25 33.68 -25 65.36 -25 98 C-16.75 98 -8.5 98 0 98 C0 65.66 0 33.32 0 0 Z " fill="#F9FAF8" transform="translate(692,509)"/>
<path d="M0 0 C15.51 0 31.02 0 47 0 C46.67 1.98 46.34 3.96 46 6 C45.505 4.515 45.505 4.515 45 3 C31.14 3 17.28 3 3 3 C3 45.57 3 88.14 3 132 C10.59 132 18.18 132 26 132 C26 101.31 26 70.62 26 39 C26.33 39 26.66 39 27 39 C27 70.02 27 101.04 27 133 C18.75 133 10.5 133 2 133 C1.67 102.64 1.34 72.28 1 41 C0.67 41 0.34 41 0 41 C0 27.47 0 13.94 0 0 Z " fill="#DDDDDA" transform="translate(665,474)"/>
<path d="M0 0 C20.46 0 40.92 0 62 0 C62 24.42 62 48.84 62 74 C54.08 74 46.16 74 38 74 C38.495 72.02 38.495 72.02 39 70 C39 70.66 39 71.32 39 72 C45.93 72 52.86 72 60 72 C60 48.57 60 25.14 60 1 C40.86 1 21.72 1 2 1 C2 7.6 2 14.2 2 21 C1.67 21 1.34 21 1 21 C0.67 14.07 0.34 7.14 0 0 Z " fill="#FBFCFB" transform="translate(285,535)"/>
<path d="M0 0 C2 1 2 1 3.03102112 3.90266418 C3.40851305 5.21378391 3.777082 6.52749059 4.13891602 7.84301758 C4.34242676 8.55850266 4.5459375 9.27398773 4.75561523 10.01115417 C5.42929808 12.38687546 6.09162432 14.76560887 6.75390625 17.14453125 C7.21880278 18.79280821 7.68438281 20.44089252 8.15061951 22.08879089 C9.37875447 26.43693123 10.59722255 30.78772514 11.81384277 35.13909912 C13.05148532 39.55863124 14.29874865 43.9754455 15.54492188 48.39257812 C17.36486523 54.84998573 19.18194882 61.30818441 20.99047852 67.76879883 C21.27492073 68.78280258 21.27492073 68.78280258 21.56510925 69.81729126 C22.41808481 72.86875676 23.25512492 75.92016907 24 79 C25.17966111 75.13605341 26.35683866 71.27135869 27.53198242 67.40603638 C27.96889468 65.96900594 28.40606905 64.53205517 28.84350586 63.09518433 C31.78083005 53.44013551 34.66240817 43.77030915 37.48828125 34.08203125 C38.07720767 32.06802738 38.66615615 30.05402996 39.25512695 28.04003906 C40.12826389 25.0533262 40.99898657 22.06600792 41.86264038 19.07653809 C42.67365876 16.26941232 43.49238292 13.46463486 44.3125 10.66015625 C44.55482864 9.81266312 44.79715729 8.96516998 45.04682922 8.09199524 C46.7727677 2.2272323 46.7727677 2.2272323 49 0 C47.58103642 8.12439351 45.37121436 15.93368892 43.0078125 23.828125 C42.61628311 25.14780851 42.22516811 26.46761502 41.83444214 27.78753662 C40.81071162 31.24213965 39.78184947 34.69519195 38.75170898 38.14788818 C37.51132324 42.30839903 36.27660568 46.47059453 35.04148674 50.63267136 C34.07809226 53.87893093 33.11349754 57.12481293 32.14627075 60.36993408 C29.70702392 68.56429737 27.33253518 76.77473918 25 85 C24.34 85 23.68 85 23 85 C22.69408936 83.8661084 22.38817871 82.7322168 22.07299805 81.56396484 C20.6154025 76.1664925 19.15241479 70.77049006 17.6875 65.375 C17.42110718 64.39346954 17.15471436 63.41193909 16.88024902 62.40066528 C12.53066204 46.39662879 8.00908388 30.44934832 3.3034668 14.54638672 C3.08001083 13.78603622 2.85655487 13.02568573 2.62632751 12.24229431 C2.21127199 10.8304189 1.79292582 9.41950486 1.37062073 8.00978088 C0.55264168 5.22153395 0 2.92548672 0 0 Z " fill="#0E1010" transform="translate(712,474)"/>
<path d="M0 0 C1.79551088 2.69326632 2.63859974 4.59385727 3.60400391 7.62329102 C3.90416412 8.55758438 4.20432434 9.49187775 4.51358032 10.45448303 C4.83136444 11.46079269 5.14914856 12.46710236 5.4765625 13.50390625 C5.80667328 14.53813217 6.13678406 15.57235809 6.47689819 16.63792419 C7.17338316 18.82357077 7.86754891 21.00995755 8.55957031 23.19702148 C9.62245096 26.5544481 10.69345373 29.90920208 11.765625 33.26367188 C12.44058711 35.38526308 13.11508228 37.50700291 13.7890625 39.62890625 C14.11089508 40.63724014 14.43272766 41.64557404 14.76431274 42.6844635 C15.05816864 43.61560471 15.35202454 44.54674591 15.65478516 45.50610352 C15.91522614 46.32756363 16.17566711 47.14902374 16.44400024 47.99537659 C17 50 17 50 17 52 C5.78 52 -5.44 52 -17 52 C-15.0906009 44.99886997 -13.14401391 38.09829661 -10.8984375 31.2109375 C-10.61650543 30.3410318 -10.33457336 29.4711261 -10.0440979 28.57485962 C-9.45549222 26.76123889 -8.86558895 24.9480388 -8.27441406 23.13525391 C-7.36621334 20.3480342 -6.46414622 17.55887728 -5.5625 14.76953125 C-4.98734337 12.99988159 -4.41183565 11.23034599 -3.8359375 9.4609375 C-3.56615082 8.62565521 -3.29636414 7.79037292 -3.0184021 6.92977905 C-1.11482756 1.11482756 -1.11482756 1.11482756 0 0 Z M0 5 C-3.96614442 14.13825002 -6.80745642 23.62363621 -9.75 33.125 C-10.26135287 34.76573908 -10.77306878 36.40636505 -11.28515625 38.046875 C-12.52830126 42.02976678 -13.76396945 46.01486703 -15 50 C-5.1 50 4.8 50 15 50 C12.40073105 40.46385686 12.40073105 40.46385686 9.58984375 30.99609375 C9.37687149 30.30612808 9.16389923 29.61616241 8.94447327 28.9052887 C8.50109607 27.47257406 8.05663308 26.040195 7.61108398 24.6081543 C6.92951259 22.41176023 6.25678855 20.21276506 5.58398438 18.01367188 C5.14897797 16.61181134 4.71345069 15.21011231 4.27734375 13.80859375 C3.88796631 12.54845459 3.49858887 11.28831543 3.09741211 9.98999023 C2.21293385 6.93281951 2.21293385 6.93281951 0 5 Z " fill="#101112" transform="translate(510,506)"/>
<path d="M0 0 C0.33 0 0.66 0 1 0 C1.02886338 4.47915328 1.04675187 8.95828291 1.0625 13.4375 C1.07087891 14.71689453 1.07925781 15.99628906 1.08789062 17.31445312 C1.09111328 18.52939453 1.09433594 19.74433594 1.09765625 20.99609375 C1.10289307 22.12200928 1.10812988 23.2479248 1.11352539 24.40795898 C1 27 1 27 0 28 C-1.93306498 28.09396057 -3.86958838 28.11743517 -5.80493164 28.11352539 C-7.66674828 28.11341209 -7.66674828 28.11341209 -9.56617737 28.11329651 C-10.9308374 28.10818911 -12.29549702 28.1029731 -13.66015625 28.09765625 C-15.04878183 28.095792 -16.43740807 28.09436813 -17.82603455 28.09336853 C-21.48721115 28.08954387 -25.1483483 28.07971403 -28.80950928 28.06866455 C-32.54292263 28.05844932 -36.27634234 28.05387067 -40.00976562 28.04882812 C-47.33986385 28.0380917 -54.66992138 28.02049534 -62 28 C-62 35.26 -62 42.52 -62 50 C-59.69 50 -57.38 50 -55 50 C-55 50.33 -55 50.66 -55 51 C-57.97 51 -60.94 51 -64 51 C-64 42.75 -64 34.5 -64 26 C-42.88 26 -21.76 26 0 26 C0 17.42 0 8.84 0 0 Z " fill="#282727" transform="translate(562,692)"/>
<path d="M0 0 C0.33 0 0.66 0 1 0 C1.01030746 1.22331024 1.02061493 2.44662048 1.03123474 3.70700073 C1.12883203 15.21445454 1.23155292 26.72185261 1.33933926 38.22921562 C1.39459221 44.14579246 1.448016 50.06237422 1.49731445 55.97900391 C1.54492301 61.68485047 1.59726452 67.39063549 1.65294075 73.09640884 C1.67338023 75.2773702 1.69209063 77.45834844 1.70907402 79.63933945 C1.73308278 82.68524047 1.76314215 85.73102442 1.79467773 88.77685547 C1.8004332 89.68603729 1.80618866 90.59521912 1.81211853 91.5319519 C1.72935687 95.9035047 1.72935687 95.9035047 3 100 C1.68 100 0.36 100 -1 100 C-1.02318959 87.99520496 -1.04094884 75.99041527 -1.05181217 63.98560238 C-1.05702651 58.41104782 -1.06409786 52.83650861 -1.07543945 47.26196289 C-1.0863198 41.88032951 -1.09228776 36.49871087 -1.09487724 31.11706734 C-1.09672221 29.06581961 -1.10032495 27.01457266 -1.10573006 24.96333122 C-1.11300878 22.08613223 -1.11398806 19.20899386 -1.11352539 16.33178711 C-1.11712067 15.48733536 -1.12071594 14.64288361 -1.12442017 13.77284241 C-1.11626852 9.07552227 -0.78299292 4.63336055 0 0 Z " fill="#FDFDFC" transform="translate(780,509)"/>
<path d="M0 0 C0.33 0 0.66 0 1 0 C1 8.91 1 17.82 1 27 C11.23 27 21.46 27 32 27 C29.69230769 37.38461538 29.69230769 37.38461538 26 42 C25.01 42.495 25.01 42.495 24 43 C24.42925781 42.17242188 24.42925781 42.17242188 24.8671875 41.328125 C26.07739151 38.84094711 27.1095306 36.32252247 28.125 33.75 C28.47820312 32.85796875 28.83140625 31.9659375 29.1953125 31.046875 C29.46085937 30.37140625 29.72640625 29.6959375 30 29 C28.69011108 29.00785522 28.69011108 29.00785522 27.35375977 29.01586914 C24.12410727 29.03287751 20.89447755 29.04543369 17.66479492 29.05493164 C16.26504772 29.0599708 14.8653058 29.06680216 13.46557617 29.07543945 C11.45754223 29.0875232 9.44947043 29.09269807 7.44140625 29.09765625 C6.23170166 29.10289307 5.02199707 29.10812988 3.77563477 29.11352539 C1 29 1 29 0 28 C-0.08767112 25.92737924 -0.10695873 23.85179706 -0.09765625 21.77734375 C-0.09443359 20.51728516 -0.09121094 19.25722656 -0.08789062 17.95898438 C-0.07953403 16.61848891 -0.07106907 15.27799412 -0.0625 13.9375 C-0.0574866 12.59310058 -0.05292342 11.2486994 -0.04882812 9.90429688 C-0.03699488 6.60282059 -0.02050971 3.30143197 0 0 Z " fill="#060809" transform="translate(284,534)"/>
<path d="M0 0 C2.71304617 2.71304617 2.87173505 5.01795852 3.734375 8.7578125 C5.32853961 15.4500528 7.10914388 22.06974185 9.015625 28.6796875 C9.27855347 29.59325012 9.54148193 30.50681274 9.81237793 31.44805908 C10.62277809 34.25766345 11.43594251 37.06645327 12.25 39.875 C13.34156781 43.64236352 14.42962751 47.41071503 15.515625 51.1796875 C15.76556213 52.03787079 16.01549927 52.89605408 16.27301025 53.78024292 C18 59.77452074 18 59.77452074 18 62 C17.34 62 16.68 62 16 62 C15.82682755 61.38834488 15.65365509 60.77668976 15.47523499 60.14649963 C13.67860752 53.80316344 11.87740286 47.46114013 10.07348633 41.11987305 C9.40009994 38.75041808 8.72789712 36.38062642 8.05688477 34.01049805 C7.09439155 30.61158291 6.12770337 27.21388566 5.16015625 23.81640625 C4.85908463 22.74975235 4.558013 21.68309845 4.24781799 20.5841217 C3.967603 19.60318039 3.687388 18.62223907 3.39868164 17.61157227 C3.02894981 16.30918358 3.02894981 16.30918358 2.65174866 14.98048401 C2.17203676 13.02182541 2.17203676 13.02182541 1 12 C0.76572222 9.98405418 0.58663876 7.961526 0.4375 5.9375 C0.35371094 4.83277344 0.26992188 3.72804688 0.18359375 2.58984375 C0.09271484 1.30787109 0.09271484 1.30787109 0 0 Z " fill="#131415" transform="translate(693,510)"/>
<path d="M0 0 C2 2 2 2 5 13 C-6.22 13 -17.44 13 -29 13 C-28.67 11.68 -28.34 10.36 -28 9 C-27.34 9.33 -26.68 9.66 -26 10 C-23.82325217 10.15469367 -21.6421652 10.25002106 -19.4609375 10.31640625 C-18.15898437 10.35830078 -16.85703125 10.40019531 -15.515625 10.44335938 C-14.13541955 10.48317299 -12.75521117 10.52288522 -11.375 10.5625 C-9.98696585 10.60569407 -8.59894472 10.64930865 -7.2109375 10.69335938 C-3.80739744 10.79972 -0.40378222 10.90174714 3 11 C2.7834375 10.45730469 2.566875 9.91460938 2.34375 9.35546875 C2.0653125 8.64003906 1.786875 7.92460938 1.5 7.1875 C1.2215625 6.47980469 0.943125 5.77210938 0.65625 5.04296875 C0 3 0 3 0 0 Z " fill="#232424" transform="translate(522,545)"/>
<path d="M0 0 C0.66 1.32 1.32 2.64 2 4 C11.57 3.67 21.14 3.34 31 3 C31 3.99 31 4.98 31 6 C26.74585377 6.02465622 22.49174502 6.04283899 18.23754883 6.05493164 C16.78929927 6.05997101 15.34105483 6.06680253 13.89282227 6.07543945 C11.81525412 6.08752247 9.73775303 6.09323211 7.66015625 6.09765625 C6.40855713 6.10289307 5.15695801 6.10812988 3.86743164 6.11352539 C1 6 1 6 0 5 C-0.04063832 3.33382885 -0.042721 1.66611905 0 0 Z " fill="#FCFDFB" transform="translate(721,603)"/>
<path d="M0 0 C1 4 1 4 1 4 Z M-1 4 C-0.67 4 -0.34 4 0 4 C0 13.9 0 23.8 0 34 C-0.99 34 -1.98 34 -3 34 C-3.07496234 30.10195843 -2.945936 26.75867425 -2 23 C-1.85870882 21.48729395 -1.75537183 19.97071872 -1.68359375 18.453125 C-1.64169922 17.60878906 -1.59980469 16.76445313 -1.55664062 15.89453125 C-1.51732422 15.02183594 -1.47800781 14.14914062 -1.4375 13.25 C-1.39431641 12.36183594 -1.35113281 11.47367188 -1.30664062 10.55859375 C-1.20086385 8.37254037 -1.09877454 6.18637911 -1 4 Z " fill="#DFE0DD" transform="translate(223,524)"/>
<path d="M0 0 C11.88 0 23.76 0 36 0 C36 0.33 36 0.66 36 1 C34.98574951 1.01981934 33.97149902 1.03963867 32.92651367 1.06005859 C29.16356576 1.13613023 25.40100377 1.22484491 21.63842773 1.31738281 C20.00992451 1.35566618 18.38133691 1.39052024 16.75268555 1.421875 C14.41163986 1.46754002 12.0711747 1.52553077 9.73046875 1.5859375 C8.63813179 1.60326431 8.63813179 1.60326431 7.52372742 1.62094116 C3.83038626 1.72878512 2.15173586 1.89884276 -1 4 C-0.67 2.68 -0.34 1.36 0 0 Z " fill="#E1E1DD" transform="translate(492,476)"/>
<path d="M0 0 C2.7573101 2.7573101 3.1821085 5.88055907 4.0625 9.5625 C4.2387793 10.28179688 4.41505859 11.00109375 4.59667969 11.7421875 C5.80666032 16.819989 6.62757804 21.78609261 7 27 C4.99189062 23.98783592 4.31215234 21.84613338 3.4375 18.375 C2.77992264 14.89239051 2.77992264 14.89239051 1 12 C0.76572222 9.98405418 0.58663876 7.961526 0.4375 5.9375 C0.35371094 4.83277344 0.26992188 3.72804688 0.18359375 2.58984375 C0.09271484 1.30787109 0.09271484 1.30787109 0 0 Z " fill="#0E0E0F" transform="translate(693,510)"/>
<path d="M0 0 C0.50789062 0.39832031 1.01578125 0.79664063 1.5390625 1.20703125 C5.53903498 4.28566175 9.36879143 6.91595614 14 9 C14 9.33 14 9.66 14 10 C10.67245632 10.58232014 8.65513891 10.43675927 5.8203125 8.546875 C3.72681716 6.77373659 1.77017069 5.09814648 0 3 C0 2.01 0 1.02 0 0 Z " fill="#1E2123" transform="translate(168,870)"/>
<path d="M0 0 C0 3.71928506 -1.34770822 5.69541645 -3 9 C-3.69907414 11.73572585 -3.69907414 11.73572585 -4 14 C-4.66 14 -5.32 14 -6 14 C-5.87952582 8.97294083 -5.75412763 5.90127449 -2.4375 1.9375 C-1.633125 1.298125 -0.82875 0.65875 0 0 Z " fill="#1C1F21" transform="translate(168,212)"/>
<path d="M0 0 C9.17286652 1.33041575 9.17286652 1.33041575 12.625 4.125 C13.07875 4.74375 13.5325 5.3625 14 6 C10.12375078 6 7.5439293 4.52755573 4 3 C1.22111387 2.30859478 1.22111387 2.30859478 -1 2 C-0.67 1.34 -0.34 0.68 0 0 Z " fill="#191C1E" transform="translate(837,201)"/>
<path d="M0 0 C0.33 0 0.66 0 1 0 C1 3.63 1 7.26 1 11 C0.34 11 -0.32 11 -1 11 C-1.33 12.98 -1.66 14.96 -2 17 C-2.33 17 -2.66 17 -3 17 C-2.36934845 11.2190275 -1.34844868 5.6556294 0 0 Z " fill="#0A0C0D" transform="translate(778,512)"/>
<path d="M0 0 C0.66 0.33 1.32 0.66 2 1 C-0.625 5.875 -0.625 5.875 -4 7 C-5.66621616 7.03874921 -7.33394172 7.0450286 -9 7 C-6.03716687 4.61327331 -3.05729491 2.2646629 0 0 Z " fill="#1E2123" transform="translate(851,873)"/>
<path d="M0 0 C1 2 1 2 0.44140625 3.9453125 C0.15136719 4.66460938 -0.13867188 5.38390625 -0.4375 6.125 C-0.72496094 6.84945312 -1.01242187 7.57390625 -1.30859375 8.3203125 C-1.53675781 8.87460937 -1.76492188 9.42890625 -2 10 C-1.34 10 -0.68 10 0 10 C0 10.66 0 11.32 0 12 C-1.65 12 -3.3 12 -5 12 C-4.54965877 10.37276701 -4.08944646 8.74826336 -3.625 7.125 C-3.36976563 6.22007812 -3.11453125 5.31515625 -2.8515625 4.3828125 C-2 2 -2 2 0 0 Z " fill="#F2F3F1" transform="translate(448,597)"/>
<path d="M0 0 C1.8125 0.1875 1.8125 0.1875 4 1 C6.62334906 4.37287736 7.36372697 6.75651873 7 11 C6.38125 10.1646875 6.38125 10.1646875 5.75 9.3125 C4.47969605 7.63388406 3.16014877 5.99217853 1.8125 4.375 C0 2 0 2 0 0 Z " fill="#1B1E1F" transform="translate(853,210)"/>
<path d="M0 0 C0.99 0.99 1.98 1.98 3 3 C2.14148438 3.13728516 2.14148438 3.13728516 1.265625 3.27734375 C-1.55455705 4.17688458 -3.07584262 5.56952241 -5.25 7.5625 C-5.95640625 8.20316406 -6.6628125 8.84382812 -7.390625 9.50390625 C-7.92171875 9.99761719 -8.4528125 10.49132812 -9 11 C-9 8 -9 8 -7.03125 5.95703125 C-6.1959375 5.24933594 -5.360625 4.54164063 -4.5 3.8125 C-3.6646875 3.09707031 -2.829375 2.38164063 -1.96875 1.64453125 C-1.3190625 1.10183594 -0.669375 0.55914063 0 0 Z " fill="#F1F2F1" transform="translate(319,594)"/>
<path d="M0 0 C0.33 0 0.66 0 1 0 C0.8125 3.3125 0.8125 3.3125 0 7 C-2.5625 8.9375 -2.5625 8.9375 -5 10 C-3.66654496 6.40992874 -2.1056769 3.20429093 0 0 Z " fill="#191C1D" transform="translate(859,862)"/>
<path d="M0 0 C0.66 0.33 1.32 0.66 2 1 C1.67 3.64 1.34 6.28 1 9 C0.01 9 -0.98 9 -2 9 C-1.125 1.125 -1.125 1.125 0 0 Z " fill="#E2E2E1" transform="translate(252,525)"/>
<path d="M0 0 C0.66 0 1.32 0 2 0 C2.99 3.3 3.98 6.6 5 10 C4.01 9.67 3.02 9.34 2 9 C1.26953125 6.93359375 1.26953125 6.93359375 0.8125 4.4375 C0.65394531 3.61121094 0.49539062 2.78492188 0.33203125 1.93359375 C0.16767578 0.97646484 0.16767578 0.97646484 0 0 Z " fill="#181A1C" transform="translate(162,859)"/>
<path d="M0 0 C2.56616632 3.84924948 2.55097676 6.4349304 3 11 C2.67 10.34 2.34 9.68 2 9 C1.34 9 0.68 9 0 9 C0 6.03 0 3.06 0 0 Z " fill="#515B5B" transform="translate(695,523)"/>
<path d="M0 0 C0 0.66 0 1.32 0 2 C-5.95703125 3.7578125 -5.95703125 3.7578125 -8 4 C-8.99 3.34 -9.98 2.68 -11 2 C-7.12315913 0.80712589 -4.08378077 0 0 0 Z " fill="#576060" transform="translate(335,516)"/>
<path d="M0 0 C0 0.66 0 1.32 0 2 C-1.65 2.33 -3.3 2.66 -5 3 C-5 2.34 -5 1.68 -5 1 C-6.65 1.33 -8.3 1.66 -10 2 C-6.80505194 -1.19494806 -4.22040044 -1.35655728 0 0 Z " fill="#E1E2E0" transform="translate(333,513)"/>
<path d="M0 0 C1.32 0.33 2.64 0.66 4 1 C1.69 2.65 -0.62 4.3 -3 6 C-3.66 5.67 -4.32 5.34 -5 5 C-2.75 2.4375 -2.75 2.4375 0 0 Z " fill="#171A1B" transform="translate(177,203)"/>
<path d="M0 0 C0.66 1.32 1.32 2.64 2 4 C1.34 4 0.68 4 0 4 C0 2.68 0 1.36 0 0 Z " fill="#383C3D" transform="translate(162,866)"/>
<path d="M0 0 C1.65 0 3.3 0 5 0 C5 0.33 5 0.66 5 1 C3.35 1 1.7 1 0 1 C0 0.67 0 0.34 0 0 Z " fill="#393D3D" transform="translate(338,884)"/>
<path d="M0 0 C0.66 1.32 1.32 2.64 2 4 C1.34 3.67 0.68 3.34 0 3 C0 2.01 0 1.02 0 0 Z " fill="#3A3E3E" transform="translate(160,862)"/>
<path d="M0 0 C0.99 0.33 1.98 0.66 3 1 C2.01 1.33 1.02 1.66 0 2 C0 1.34 0 0.68 0 0 Z " fill="#383E3D" transform="translate(176,200)"/>
<path d="M0 0 C0.99 0.495 0.99 0.495 2 1 C1.34 1.66 0.68 2.32 0 3 C0 2.01 0 1.02 0 0 Z " fill="#383C3C" transform="translate(160,219)"/>
<path d="M0 0 C0.99 0.495 0.99 0.495 2 1 C1.01 1.495 1.01 1.495 0 2 C0 1.34 0 0.68 0 0 Z " fill="#353B3A" transform="translate(846,200)"/>
<path d="M0 0 C2 1 2 1 2 1 Z " fill="#3C3F3F" transform="translate(201,884)"/>
<path d="" fill="#393D3E" transform="translate(0,0)"/>
<path d="" fill="#393E3E" transform="translate(0,0)"/>
<path d="M0 0 C2 1 2 1 2 1 Z " fill="#353A3B" transform="translate(843,200)"/>
<path d="M0 0 C2 1 2 1 2 1 Z " fill="#363B3C" transform="translate(179,200)"/>
<path d="" fill="#2C2F2F" transform="translate(0,0)"/>
<path d="" fill="#383E3E" transform="translate(0,0)"/>
<path d="" fill="#3A3C3E" transform="translate(0,0)"/>
<path d="" fill="#3B3F3C" transform="translate(0,0)"/>
<path d="" fill="#3A3F3D" transform="translate(0,0)"/>
<path d="" fill="#3A3E3E" transform="translate(0,0)"/>
<path d="" fill="#3A3E3F" transform="translate(0,0)"/>
<path d="" fill="#3A3D3D" transform="translate(0,0)"/>
<path d="" fill="#393F3F" transform="translate(0,0)"/>
<path d="" fill="#3A4240" transform="translate(0,0)"/>
<path d="" fill="#414543" transform="translate(0,0)"/>
<path d="" fill="#3F4443" transform="translate(0,0)"/>
<path d="" fill="#3E4241" transform="translate(0,0)"/>
<path d="" fill="#3C4041" transform="translate(0,0)"/>
<path d="" fill="#3A413F" transform="translate(0,0)"/>
<path d="" fill="#3A3D3F" transform="translate(0,0)"/>
<path d="" fill="#3C3F3F" transform="translate(0,0)"/>
<path d="" fill="#3C413F" transform="translate(0,0)"/>
<path d="" fill="#3A3E40" transform="translate(0,0)"/>
<path d="" fill="#3C4040" transform="translate(0,0)"/>
<path d="" fill="#3A3D3D" transform="translate(0,0)"/>
<path d="" fill="#3C413F" transform="translate(0,0)"/>
<path d="" fill="#383E3E" transform="translate(0,0)"/>
<path d="" fill="#383C3D" transform="translate(0,0)"/>
<path d="" fill="#393E3E" transform="translate(0,0)"/>
<path d="" fill="#393D3F" transform="translate(0,0)"/>
<path d="" fill="#393C3C" transform="translate(0,0)"/>
<path d="" fill="#393D3D" transform="translate(0,0)"/>
<path d="" fill="#3A3E3F" transform="translate(0,0)"/>
<path d="" fill="#3A3F3E" transform="translate(0,0)"/>
<path d="" fill="#393F3E" transform="translate(0,0)"/>
<path d="" fill="#3B3F3F" transform="translate(0,0)"/>
<path d="" fill="#3D4240" transform="translate(0,0)"/>
<path d="" fill="#2A2D2E" transform="translate(0,0)"/>
</svg>
